<?xml version="1.0" encoding="UTF-8" standalone="no"?>
<!DOCTYPE svg PUBLIC "-//W3C//DTD SVG 1.0//EN" "http://www.w3.org/TR/2001/REC-SVG-20010904/DTD/svg10.dtd">

<svg xmlns="http://www.w3.org/2000/svg" xmlns:xlink="http://www.w3.org/1999/xlink" width="49.18cm" height="10.09cm" viewBox="0 0 1394 286">
<title></title>
<desc>Picture generated by wxSVG v0101</desc>

<g style="fill:black; stroke:black; stroke-width:1">
</g>
<g style="stroke-width:1; stroke-linecap:round; stroke-linejoin:round; fill:#000000; fill-opacity:1.00; stroke:#000000; stroke-opacity:1.00;" transform="translate(0.00 0.00) scale(1.00 1.00)">
  <rect x="0" y="0" width="1394" height="286" rx="0.00" shape-rendering="auto"  />
</g>
<g style="stroke-width:1; stroke-linecap:round; stroke-linejoin:round; fill:#000000; fill-opacity:1.00; stroke:#FFFFFF; stroke-opacity:1.00;" transform="translate(0.00 0.00) scale(1.00 1.00)">
  <path d="M94 229 L1373 229" shape-rendering="auto" stroke-dasharray="0.666667,1.666667"/>
</g>
<g style="stroke-width:1; stroke-linecap:round; stroke-linejoin:round; fill:#000000; fill-opacity:1.00; stroke:#FFFFFF; stroke-opacity:1.00;" transform="translate(0.00 0.00) scale(1.00 1.00)">
  <path d="M84 229 L94 229" shape-rendering="auto" />
  <text x="64.00" y="233.00" textLength="14" style="font-family:Liberation Sans; font-weight:400; font-style:normal; font-size:9.00pt; text-decoration: none; fill:#FFFF00; fill-opacity:1.00; stroke:#FFFF00; stroke-opacity:1.00; stroke-width:0; white-space: pre;" xml:space="preserve" transform="rotate(0.00 64.00 233.00)">0V</text>
</g>
<g style="stroke-width:1; stroke-linecap:round; stroke-linejoin:round; fill:#000000; fill-opacity:1.00; stroke:#FFFFFF; stroke-opacity:1.00;" transform="translate(0.00 0.00) scale(1.00 1.00)">
  <path d="M94 30 L1373 30" shape-rendering="auto" stroke-dasharray="0.666667,1.666667"/>
</g>
<g style="stroke-width:1; stroke-linecap:round; stroke-linejoin:round; fill:#000000; fill-opacity:1.00; stroke:#FFFFFF; stroke-opacity:1.00;" transform="translate(0.00 0.00) scale(1.00 1.00)">
  <path d="M84 30 L94 30" shape-rendering="auto" />
  <text x="64.00" y="34.00" textLength="14" style="font-family:Liberation Sans; font-weight:400; font-style:normal; font-size:9.00pt; text-decoration: none; fill:#FFFF00; fill-opacity:1.00; stroke:#FFFF00; stroke-opacity:1.00; stroke-width:0; white-space: pre;" xml:space="preserve" transform="rotate(0.00 64.00 34.00)">1V</text>
</g>
<g style="stroke-width:1; stroke-linecap:round; stroke-linejoin:round; fill:#000000; fill-opacity:1.00; stroke:#FFFFFF; stroke-opacity:1.00;" transform="translate(0.00 0.00) scale(1.00 1.00)">
  <path d="M94 163 L1373 163" shape-rendering="auto" stroke-dasharray="0.666667,1.666667"/>
</g>
<g style="stroke-width:1; stroke-linecap:round; stroke-linejoin:round; fill:#000000; fill-opacity:1.00; stroke:#FFFFFF; stroke-opacity:1.00;" transform="translate(0.00 0.00) scale(1.00 1.00)">
  <path d="M84 163 L94 163" shape-rendering="auto" />
  <text x="54.00" y="167.00" textLength="24" style="font-family:Liberation Sans; font-weight:400; font-style:normal; font-size:9.00pt; text-decoration: none; fill:#FFFF00; fill-opacity:1.00; stroke:#FFFF00; stroke-opacity:1.00; stroke-width:0; white-space: pre;" xml:space="preserve" transform="rotate(0.00 54.00 167.00)">0.3V</text>
  <text x="20.00" y="135.00" textLength="40" style="font-family:Liberation Sans; font-weight:400; font-style:normal; font-size:11.00pt; text-decoration: none; fill:#00FFFF; fill-opacity:1.00; stroke:#00FFFF; stroke-opacity:1.00; stroke-width:0; white-space: pre;" xml:space="preserve" transform="rotate(0.00 20.00 135.00)">Signal</text>
</g>
<g style="stroke-width:1; stroke-linecap:round; stroke-linejoin:round; fill:#000000; fill-opacity:1.00; stroke:#00FF00; stroke-opacity:1.00;" transform="translate(0.00 0.00) scale(1.00 1.00)">
  <path d="M94 164 L94 229" shape-rendering="auto" />
  <path d="M94 229 L174 229" shape-rendering="auto" />
</g>
<g style="stroke-width:1; stroke-linecap:round; stroke-linejoin:round; fill:#000000; fill-opacity:1.00; stroke:#00FF00; stroke-opacity:1.00;" transform="translate(0.00 0.00) scale(1.00 1.00)">
  <path d="M174 229 L174 164" shape-rendering="auto" />
  <path d="M174 164 L294 164" shape-rendering="auto" />
</g>
<g style="stroke-width:1; stroke-linecap:round; stroke-linejoin:round; fill:#000000; fill-opacity:1.00; stroke:#00FF00; stroke-opacity:1.00;" transform="translate(0.00 0.00) scale(1.00 1.00)">
  <path d="M294 164 L295 163 L296 163 L297 162 L298 160 L299 159 L300 156 L301 154 L302 151 L303 148 L304 144 L305 141 L306 136 L307 132 L308 128 L309 123 L310 118 L311 113 L312 108 L313 103 L314 98 L315 92 L316 87 L317 82 L318 77 L319 72 L320 68 L321 63 L322 59 L323 55 L324 51 L325 47 L326 44 L327 41 L328 39 L329 37 L330 35 L331 33 L332 32 L333 32 L334 32 L335 32 L336 32 L337 33 L338 35 L339 37 L340 39 L341 41 L342 44 L343 47 L344 51 L345 55 L346 59 L347 63 L348 68 L349 72 L350 77 L351 82 L352 87 L353 92 L354 98 L355 103 L356 108 L357 113 L358 118 L359 123 L360 128 L361 132 L362 136 L363 141 L364 144 L365 148 L366 151 L367 154 L368 156 L369 159 L370 160 L371 162 L372 163 L373 163 L374 164 L375 163 L376 163 L377 162 L378 160 L379 159 L380 156 L381 154 L382 151 L383 148 L384 144 L385 141 L386 136 L387 132 L388 128 L389 123 L390 118 L391 113 L392 108 L393 103 L394 98 L395 92 L396 87 L397 82 L398 77 L399 72 L400 68 L401 63 L402 59 L403 55 L404 51 L405 47 L406 44 L407 41 L408 39 L409 37 L410 35 L411 33 L412 32 L413 32 L414 32 L415 32 L416 32 L417 33 L418 35 L419 37 L420 39 L421 41 L422 44 L423 47 L424 51 L425 55 L426 59 L427 63 L428 68 L429 72 L430 77 L431 82 L432 87 L433 92 L434 98 L435 103 L436 108 L437 113 L438 118 L439 123 L440 128 L441 132 L442 136 L443 141 L444 144 L445 148 L446 151 L447 154 L448 156 L449 159 L450 160 L451 162 L452 163 L453 163 L454 164 L455 163 L456 163 L457 162 L458 160 L459 159 L460 156 L461 154 L462 151 L463 148 L464 144 L465 141 L466 136 L467 132 L468 128 L469 123 L470 118 L471 113 L472 108 L473 103 L474 98 L475 92 L476 87 L477 82 L478 77 L479 72 L480 68 L481 63 L482 59 L483 55 L484 51 L485 47 L486 44 L487 41 L488 39 L489 37 L490 35 L491 33 L492 32 L493 32 L494 32 L495 32 L496 32 L497 33 L498 35 L499 37 L500 39 L501 41 L502 44 L503 47 L504 51 L505 55 L506 59 L507 63 L508 68 L509 72 L510 77 L511 82 L512 87 L513 92 L514 98 L515 103 L516 108 L517 113 L518 118 L519 123 L520 128 L521 132 L522 136 L523 141 L524 144 L525 148 L526 151 L527 154 L528 156 L529 159 L530 160 L531 162 L532 163 L533 163 L534 164 L535 163 L536 163 L537 162 L538 160 L539 159 L540 156 L541 154 L542 151 L543 148 L544 144 L545 141 L546 136 L547 132 L548 128 L549 123 L550 118 L551 113 L552 108 L553 103 L554 98 L555 92 L556 87 L557 82 L558 77 L559 72 L560 68 L561 63 L562 59 L563 55 L564 51 L565 47 L566 44 L567 41 L568 39 L569 37 L570 35 L571 33 L572 32 L573 32 L574 32 L575 32 L576 32 L577 33 L578 35 L579 37 L580 39 L581 41 L582 44 L583 47 L584 51 L585 55 L586 59 L587 63 L588 68 L589 72 L590 77 L591 82 L592 87 L593 92 L594 98 L595 103 L596 108 L597 113 L598 118 L599 123 L600 128 L601 132 L602 136 L603 141 L604 144 L605 148 L606 151 L607 154 L608 156 L609 159 L610 160 L611 162 L612 163 L613 163 L614 164 L615 163 L616 163 L617 162 L618 160 L619 159 L620 156 L621 154 L622 151 L623 148 L624 144 L625 141 L626 136 L627 132 L628 128 L629 123 L630 118 L631 113 L632 108 L633 103 L634 98 L635 92 L636 87 L637 82 L638 77 L639 72 L640 68 L641 63 L642 59 L643 55 L644 51 L645 47 L646 44 L647 41 L648 39 L649 37 L650 35 L651 33 L652 32 L653 32 L654 32 L655 32 L656 32 L657 33 L658 35 L659 37 L660 39 L661 41 L662 44 L663 47 L664 51 L665 55 L666 59 L667 63 L668 68 L669 72 L670 77 L671 82 L672 87 L673 92 L674 98 L675 103 L676 108 L677 113 L678 118 L679 123 L680 128 L681 132 L682 136 L683 141 L684 144 L685 148 L686 151 L687 154 L688 156 L689 159 L690 160 L691 162 L692 163 L693 163 L694 164 L695 163 L696 163 L697 162 L698 160 L699 159 L700 156 L701 154 L702 151 L703 148 L704 144 L705 141 L706 136 L707 132 L708 128 L709 123 L710 118 L711 113 L712 108 L713 103 L714 98 L715 92 L716 87 L717 82 L718 77 L719 72 L720 68 L721 63 L722 59 L723 55 L724 51 L725 47 L726 44 L727 41 L728 39 L729 37 L730 35 L731 33 L732 32 L733 32 L734 32 L735 32 L736 32 L737 33 L738 35 L739 37 L740 39 L741 41 L742 44 L743 47 L744 51 L745 55 L746 59 L747 63 L748 68 L749 72 L750 77 L751 82 L752 87 L753 92 L754 98 L755 103 L756 108 L757 113 L758 118 L759 123 L760 128 L761 132 L762 136 L763 141 L764 144 L765 148 L766 151 L767 154 L768 156 L769 159 L770 160 L771 162 L772 163 L773 163 L774 164 L775 163 L776 163 L777 162 L778 160 L779 159 L780 156 L781 154 L782 151 L783 148 L784 144 L785 141 L786 136 L787 132 L788 128 L789 123 L790 118 L791 113 L792 108 L793 103 L794 98 L795 92 L796 87 L797 82 L798 77 L799 72 L800 68 L801 63 L802 59 L803 55 L804 51 L805 47 L806 44 L807 41 L808 39 L809 37 L810 35 L811 33 L812 32 L813 32 L814 32 L815 32 L816 32 L817 33 L818 35 L819 37 L820 39 L821 41 L822 44 L823 47 L824 51 L825 55 L826 59 L827 63 L828 68 L829 72 L830 77 L831 82 L832 87 L833 92 L834 98 L835 103 L836 108 L837 113 L838 118 L839 123 L840 128 L841 132 L842 136 L843 141 L844 144 L845 148 L846 151 L847 154 L848 156 L849 159 L850 160 L851 162 L852 163 L853 163 L854 164 L855 163 L856 163 L857 162 L858 160 L859 159 L860 156 L861 154 L862 151 L863 148 L864 144 L865 141 L866 136 L867 132 L868 128 L869 123 L870 118 L871 113 L872 108 L873 103 L874 98 L875 92 L876 87 L877 82 L878 77 L879 72 L880 68 L881 63 L882 59 L883 55 L884 51 L885 47 L886 44 L887 41 L888 39 L889 37 L890 35 L891 33 L892 32 L893 32 L894 32 L895 32 L896 32 L897 33 L898 35 L899 37 L900 39 L901 41 L902 44 L903 47 L904 51 L905 55 L906 59 L907 63 L908 68 L909 72 L910 77 L911 82 L912 87 L913 92 L914 98 L915 103 L916 108 L917 113 L918 118 L919 123 L920 128 L921 132 L922 136 L923 141 L924 144 L925 148 L926 151 L927 154 L928 156 L929 159 L930 160 L931 162 L932 163 L933 163 L934 164 L935 163 L936 163 L937 162 L938 160 L939 159 L940 156 L941 154 L942 151 L943 148 L944 144 L945 141 L946 136 L947 132 L948 128 L949 123 L950 118 L951 113 L952 108 L953 103 L954 98 L955 92 L956 87 L957 82 L958 77 L959 72 L960 68 L961 63 L962 59 L963 55 L964 51 L965 47 L966 44 L967 41 L968 39 L969 37 L970 35 L971 33 L972 32 L973 32 L974 32 L975 32 L976 32 L977 33 L978 35 L979 37 L980 39 L981 41 L982 44 L983 47 L984 51 L985 55 L986 59 L987 63 L988 68 L989 72 L990 77 L991 82 L992 87 L993 92 L994 98 L995 103 L996 108 L997 113 L998 118 L999 123 L1000 128 L1001 132 L1002 136 L1003 141 L1004 144 L1005 148 L1006 151 L1007 154 L1008 156 L1009 159 L1010 160 L1011 162 L1012 163 L1013 163 L1014 164 L1015 163 L1016 163 L1017 162 L1018 160 L1019 159 L1020 156 L1021 154 L1022 151 L1023 148 L1024 144 L1025 141 L1026 136 L1027 132 L1028 128 L1029 123 L1030 118 L1031 113 L1032 108 L1033 103 L1034 98 L1035 92 L1036 87 L1037 82 L1038 77 L1039 72 L1040 68 L1041 63 L1042 59 L1043 55 L1044 51 L1045 47 L1046 44 L1047 41 L1048 39 L1049 37 L1050 35 L1051 33 L1052 32 L1053 32 L1054 32 L1055 32 L1056 32 L1057 33 L1058 35 L1059 37 L1060 39 L1061 41 L1062 44 L1063 47 L1064 51 L1065 55 L1066 59 L1067 63 L1068 68 L1069 72 L1070 77 L1071 82 L1072 87 L1073 92 L1074 98 L1075 103 L1076 108 L1077 113 L1078 118 L1079 123 L1080 128 L1081 132 L1082 136 L1083 141 L1084 144 L1085 148 L1086 151 L1087 154 L1088 156 L1089 159 L1090 160 L1091 162 L1092 163 L1093 163 L1094 164 L1095 163 L1096 163 L1097 162 L1098 160 L1099 159 L1100 156 L1101 154 L1102 151 L1103 148 L1104 144 L1105 141 L1106 136 L1107 132 L1108 128 L1109 123 L1110 118 L1111 113 L1112 108 L1113 103 L1114 98 L1115 92 L1116 87 L1117 82 L1118 77 L1119 72 L1120 68 L1121 63 L1122 59 L1123 55 L1124 51 L1125 47 L1126 44 L1127 41 L1128 39 L1129 37 L1130 35 L1131 33 L1132 32 L1133 32 L1134 32 L1135 32 L1136 32 L1137 33 L1138 35 L1139 37 L1140 39 L1141 41 L1142 44 L1143 47 L1144 51 L1145 55 L1146 59 L1147 63 L1148 68 L1149 72 L1150 77 L1151 82 L1152 87 L1153 92 L1154 98 L1155 103 L1156 108 L1157 113 L1158 118 L1159 123 L1160 128 L1161 132 L1162 136 L1163 141 L1164 144 L1165 148 L1166 151 L1167 154 L1168 156 L1169 159 L1170 160 L1171 162 L1172 163 L1173 163 L1174 164 L1175 163 L1176 163 L1177 162 L1178 160 L1179 159 L1180 156 L1181 154 L1182 151 L1183 148 L1184 144 L1185 141 L1186 136 L1187 132 L1188 128 L1189 123 L1190 118 L1191 113 L1192 108 L1193 103 L1194 98 L1195 92 L1196 87 L1197 82 L1198 77 L1199 72 L1200 68 L1201 63 L1202 59 L1203 55 L1204 51 L1205 47 L1206 44 L1207 41 L1208 39 L1209 37 L1210 35 L1211 33 L1212 32 L1213 32 L1214 32 L1215 32 L1216 32 L1217 33 L1218 35 L1219 37 L1220 39 L1221 41 L1222 44 L1223 47 L1224 51 L1225 55 L1226 59 L1227 63 L1228 68 L1229 72 L1230 77 L1231 82 L1232 87 L1233 92 L1234 98 L1235 103 L1236 108 L1237 113 L1238 118 L1239 123 L1240 128 L1241 132 L1242 136 L1243 141 L1244 144 L1245 148 L1246 151 L1247 154 L1248 156 L1249 159 L1250 160 L1251 162 L1252 163 L1253 163 L1254 164 L1255 163 L1256 163 L1257 162 L1258 160 L1259 159 L1260 156 L1261 154 L1262 151 L1263 148 L1264 144 L1265 141 L1266 136 L1267 132 L1268 128 L1269 123 L1270 118 L1271 113 L1272 108 L1273 103 L1274 98 L1275 92 L1276 87 L1277 82 L1278 77 L1279 72 L1280 68 L1281 63 L1282 59 L1283 55 L1284 51 L1285 47 L1286 44 L1287 41 L1288 39 L1289 37 L1290 35 L1291 33 L1292 32 L1293 32 L1294 32 L1295 32 L1296 32 L1297 33 L1298 35 L1299 37 L1300 39 L1301 41 L1302 44 L1303 47 L1304 51 L1305 55 L1306 59 L1307 63 L1308 68 L1309 72 L1310 77 L1311 82 L1312 87 L1313 92 L1314 98 L1315 103 L1316 108 L1317 113 L1318 118 L1319 123 L1320 128 L1321 132 L1322 136 L1323 141 L1324 144 L1325 148 L1326 151 L1327 154 L1328 156 L1329 159 L1330 160 L1331 162 L1332 163 L1333 163 L1334 164" style="fill:none" shape-rendering="auto" />
</g>
<g style="stroke-width:1; stroke-linecap:round; stroke-linejoin:round; fill:#000000; fill-opacity:1.00; stroke:#00FF00; stroke-opacity:1.00;" transform="translate(0.00 0.00) scale(1.00 1.00)">
  <path d="M1334 164 L1374 164" shape-rendering="auto" />
  <text x="20.00" y="258.00" textLength="64" style="font-family:Liberation Sans; font-weight:400; font-style:normal; font-size:11.00pt; text-decoration: none; fill:#00FFFF; fill-opacity:1.00; stroke:#00FFFF; stroke-opacity:1.00; stroke-width:0; white-space: pre;" xml:space="preserve" transform="rotate(0.00 20.00 258.00)">Time (μs)</text>
</g>
<g style="stroke-width:1; stroke-linecap:round; stroke-linejoin:round; fill:#000000; fill-opacity:1.00; stroke:#FFFFFF; stroke-opacity:1.00;" transform="translate(0.00 0.00) scale(1.00 1.00)">
  <path d="M94 265 L1374 265" shape-rendering="auto" />
  <path d="M94 240 L94 265" shape-rendering="auto" />
  <path d="M174 240 L174 265" shape-rendering="auto" />
  <path d="M254 240 L254 265" shape-rendering="auto" />
  <path d="M334 240 L334 265" shape-rendering="auto" />
  <path d="M414 240 L414 265" shape-rendering="auto" />
  <path d="M494 240 L494 265" shape-rendering="auto" />
  <path d="M574 240 L574 265" shape-rendering="auto" />
  <path d="M654 240 L654 265" shape-rendering="auto" />
  <path d="M734 240 L734 265" shape-rendering="auto" />
  <path d="M814 240 L814 265" shape-rendering="auto" />
  <path d="M894 240 L894 265" shape-rendering="auto" />
  <path d="M974 240 L974 265" shape-rendering="auto" />
  <path d="M1054 240 L1054 265" shape-rendering="auto" />
  <path d="M1134 240 L1134 265" shape-rendering="auto" />
  <path d="M1214 240 L1214 265" shape-rendering="auto" />
  <path d="M1294 240 L1294 265" shape-rendering="auto" />
</g>
<g style="stroke-width:1; stroke-linecap:round; stroke-linejoin:round; fill:#000000; fill-opacity:1.00; stroke:#FFFFFF; stroke-opacity:1.00;" transform="translate(0.00 0.00) scale(1.00 1.00)">
  <text x="99.00" y="257.00" textLength="11" style="font-family:Liberation Sans; font-weight:400; font-style:normal; font-size:14.00pt; text-decoration: none; fill:#FFFFFF; fill-opacity:1.00; stroke:#FFFFFF; stroke-opacity:1.00; stroke-width:0; white-space: pre;" xml:space="preserve" transform="rotate(0.00 99.00 257.00)">0</text>
  <text x="179.00" y="257.00" textLength="11" style="font-family:Liberation Sans; font-weight:400; font-style:normal; font-size:14.00pt; text-decoration: none; fill:#FFFFFF; fill-opacity:1.00; stroke:#FFFFFF; stroke-opacity:1.00; stroke-width:0; white-space: pre;" xml:space="preserve" transform="rotate(0.00 179.00 257.00)">4</text>
  <text x="259.00" y="257.00" textLength="11" style="font-family:Liberation Sans; font-weight:400; font-style:normal; font-size:14.00pt; text-decoration: none; fill:#FFFFFF; fill-opacity:1.00; stroke:#FFFFFF; stroke-opacity:1.00; stroke-width:0; white-space: pre;" xml:space="preserve" transform="rotate(0.00 259.00 257.00)">8</text>
  <text x="339.00" y="257.00" textLength="22" style="font-family:Liberation Sans; font-weight:400; font-style:normal; font-size:14.00pt; text-decoration: none; fill:#FFFFFF; fill-opacity:1.00; stroke:#FFFFFF; stroke-opacity:1.00; stroke-width:0; white-space: pre;" xml:space="preserve" transform="rotate(0.00 339.00 257.00)">12</text>
  <text x="419.00" y="257.00" textLength="22" style="font-family:Liberation Sans; font-weight:400; font-style:normal; font-size:14.00pt; text-decoration: none; fill:#FFFFFF; fill-opacity:1.00; stroke:#FFFFFF; stroke-opacity:1.00; stroke-width:0; white-space: pre;" xml:space="preserve" transform="rotate(0.00 419.00 257.00)">16</text>
  <text x="499.00" y="257.00" textLength="22" style="font-family:Liberation Sans; font-weight:400; font-style:normal; font-size:14.00pt; text-decoration: none; fill:#FFFFFF; fill-opacity:1.00; stroke:#FFFFFF; stroke-opacity:1.00; stroke-width:0; white-space: pre;" xml:space="preserve" transform="rotate(0.00 499.00 257.00)">20</text>
  <text x="579.00" y="257.00" textLength="22" style="font-family:Liberation Sans; font-weight:400; font-style:normal; font-size:14.00pt; text-decoration: none; fill:#FFFFFF; fill-opacity:1.00; stroke:#FFFFFF; stroke-opacity:1.00; stroke-width:0; white-space: pre;" xml:space="preserve" transform="rotate(0.00 579.00 257.00)">24</text>
  <text x="659.00" y="257.00" textLength="22" style="font-family:Liberation Sans; font-weight:400; font-style:normal; font-size:14.00pt; text-decoration: none; fill:#FFFFFF; fill-opacity:1.00; stroke:#FFFFFF; stroke-opacity:1.00; stroke-width:0; white-space: pre;" xml:space="preserve" transform="rotate(0.00 659.00 257.00)">28</text>
  <text x="739.00" y="257.00" textLength="22" style="font-family:Liberation Sans; font-weight:400; font-style:normal; font-size:14.00pt; text-decoration: none; fill:#FFFFFF; fill-opacity:1.00; stroke:#FFFFFF; stroke-opacity:1.00; stroke-width:0; white-space: pre;" xml:space="preserve" transform="rotate(0.00 739.00 257.00)">32</text>
  <text x="819.00" y="257.00" textLength="22" style="font-family:Liberation Sans; font-weight:400; font-style:normal; font-size:14.00pt; text-decoration: none; fill:#FFFFFF; fill-opacity:1.00; stroke:#FFFFFF; stroke-opacity:1.00; stroke-width:0; white-space: pre;" xml:space="preserve" transform="rotate(0.00 819.00 257.00)">36</text>
  <text x="899.00" y="257.00" textLength="22" style="font-family:Liberation Sans; font-weight:400; font-style:normal; font-size:14.00pt; text-decoration: none; fill:#FFFFFF; fill-opacity:1.00; stroke:#FFFFFF; stroke-opacity:1.00; stroke-width:0; white-space: pre;" xml:space="preserve" transform="rotate(0.00 899.00 257.00)">40</text>
  <text x="979.00" y="257.00" textLength="22" style="font-family:Liberation Sans; font-weight:400; font-style:normal; font-size:14.00pt; text-decoration: none; fill:#FFFFFF; fill-opacity:1.00; stroke:#FFFFFF; stroke-opacity:1.00; stroke-width:0; white-space: pre;" xml:space="preserve" transform="rotate(0.00 979.00 257.00)">44</text>
  <text x="1059.00" y="257.00" textLength="22" style="font-family:Liberation Sans; font-weight:400; font-style:normal; font-size:14.00pt; text-decoration: none; fill:#FFFFFF; fill-opacity:1.00; stroke:#FFFFFF; stroke-opacity:1.00; stroke-width:0; white-space: pre;" xml:space="preserve" transform="rotate(0.00 1059.00 257.00)">48</text>
  <text x="1139.00" y="257.00" textLength="22" style="font-family:Liberation Sans; font-weight:400; font-style:normal; font-size:14.00pt; text-decoration: none; fill:#FFFFFF; fill-opacity:1.00; stroke:#FFFFFF; stroke-opacity:1.00; stroke-width:0; white-space: pre;" xml:space="preserve" transform="rotate(0.00 1139.00 257.00)">52</text>
  <text x="1219.00" y="257.00" textLength="22" style="font-family:Liberation Sans; font-weight:400; font-style:normal; font-size:14.00pt; text-decoration: none; fill:#FFFFFF; fill-opacity:1.00; stroke:#FFFFFF; stroke-opacity:1.00; stroke-width:0; white-space: pre;" xml:space="preserve" transform="rotate(0.00 1219.00 257.00)">56</text>
  <text x="1299.00" y="257.00" textLength="22" style="font-family:Liberation Sans; font-weight:400; font-style:normal; font-size:14.00pt; text-decoration: none; fill:#FFFFFF; fill-opacity:1.00; stroke:#FFFFFF; stroke-opacity:1.00; stroke-width:0; white-space: pre;" xml:space="preserve" transform="rotate(0.00 1299.00 257.00)">60</text>
  <text x="729.00" y="202.00" textLength="170" style="font-family:Liberation Sans; font-weight:400; font-style:normal; font-size:16.00pt; text-decoration: none; fill:#FFFF00; fill-opacity:1.00; stroke:#FFFF00; stroke-opacity:1.00; stroke-width:0; white-space: pre;" xml:space="preserve" transform="rotate(0.00 729.00 202.00)">Video data (52μs)</text>
  <text x="180.00" y="127.00" textLength="108" style="font-family:Liberation Sans; font-weight:400; font-style:normal; font-size:16.00pt; text-decoration: none; fill:#FFFF00; fill-opacity:1.00; stroke:#FFFF00; stroke-opacity:1.00; stroke-width:0; white-space: pre;" xml:space="preserve" transform="rotate(0.00 180.00 127.00)">Back porch</text>
  <text x="1334.00" y="102.00" textLength="50" style="font-family:Liberation Sans; font-weight:400; font-style:normal; font-size:16.00pt; text-decoration: none; fill:#FFFF00; fill-opacity:1.00; stroke:#FFFF00; stroke-opacity:1.00; stroke-width:0; white-space: pre;" xml:space="preserve" transform="rotate(0.00 1334.00 102.00)">Front</text>
  <text x="1334.00" y="127.00" textLength="54" style="font-family:Liberation Sans; font-weight:400; font-style:normal; font-size:16.00pt; text-decoration: none; fill:#FFFF00; fill-opacity:1.00; stroke:#FFFF00; stroke-opacity:1.00; stroke-width:0; white-space: pre;" xml:space="preserve" transform="rotate(0.00 1334.00 127.00)">porch</text>
  <text x="1334.00" y="152.00" textLength="49" style="font-family:Liberation Sans; font-weight:400; font-style:normal; font-size:16.00pt; text-decoration: none; fill:#FFFF00; fill-opacity:1.00; stroke:#FFFF00; stroke-opacity:1.00; stroke-width:0; white-space: pre;" xml:space="preserve" transform="rotate(0.00 1334.00 152.00)">(2μs)</text>
  <text x="102.00" y="192.00" textLength="66" style="font-family:Liberation Sans; font-weight:400; font-style:normal; font-size:16.00pt; text-decoration: none; fill:#FFFF00; fill-opacity:1.00; stroke:#FFFF00; stroke-opacity:1.00; stroke-width:0; white-space: pre;" xml:space="preserve" transform="rotate(0.00 102.00 192.00)">H sync</text>
  <text x="110.00" y="217.00" textLength="49" style="font-family:Liberation Sans; font-weight:400; font-style:normal; font-size:16.00pt; text-decoration: none; fill:#FFFF00; fill-opacity:1.00; stroke:#FFFF00; stroke-opacity:1.00; stroke-width:0; white-space: pre;" xml:space="preserve" transform="rotate(0.00 110.00 217.00)">(4μs)</text>
  <text x="207.00" y="152.00" textLength="55" style="font-family:Liberation Sans; font-weight:400; font-style:normal; font-size:16.00pt; text-decoration: none; fill:#FFFF00; fill-opacity:1.00; stroke:#FFFF00; stroke-opacity:1.00; stroke-width:0; white-space: pre;" xml:space="preserve" transform="rotate(0.00 207.00 152.00)"> (6μs)</text>
</g>
</svg>
